<svg xmlns="http://www.w3.org/2000/svg" viewBox="0 0 163.2 35" xml:space="preserve">
  <path d="m61.6 7.8 2.8.3c.1 9.9.3 15.4.3 18.5 0 2.5-.2 4.1-.7 5.1l-.7-.8c-1-1.2-1.9-1.8-3-1.8-1.3-.1-2.5.9-2.6 2.3v.2c.8 1.4 2.4 2.2 4 2.1 2.1 0 4.1-.8 5.6-2.3 2.3-2.3 2.9-5.8 2.9-11.8V8.1l2.6-.3V6h-11v1.8zm23.3 20.3 6.8-.3v-1.6l-1.7-.3v-9.4l.1-4.7-.5-.4-6.6 1.1v1.3l1.8.4-.1 9.4c-.7.8-1.8 1.4-2.9 1.5-1.1 0-1.8-.7-1.8-2.7v-5.9l.2-4.7-.5-.4-6.8 1v1.4l1.9.4-.1 8.1c-.1 4.4 1.9 6 4.7 6 2.2-.1 4.2-1.1 5.4-2.9l.1 2.7zm14.5.2c4.7 0 7.5-2 7.5-5.5 0-2.5-1.3-4.2-4.4-5.1l-1.6-.5c-2.3-.7-2.8-1.3-2.8-2.2 0-1.2 1-1.9 2.5-1.9.6 0 1.2.1 1.8.3l.7 2.9h2.7l.2-3.6c-1.6-.9-3.4-1.3-5.2-1.4-4.5 0-6.9 2.4-6.9 5.4 0 2.5 1.4 4.2 4 4.9l1.8.5c2.2.6 2.8 1.3 2.8 2.4 0 1.3-1.1 2-2.9 2-.8 0-1.7-.2-2.5-.5l-.6-3.3h-2.7l-.1 4c1.7 1.1 3.7 1.6 5.7 1.6zm15.5 0c2 .2 3.9-.9 4.9-2.7l-.8-.8c-.5.4-1.1.7-1.8.7-1 0-1.7-.7-1.7-2.3V14h3.5v-2.3h-3.5l.1-4.7h-3.4l-1.7 4.6-2.5.3v2h2.2v9.6c0 3.4 1.8 4.8 4.7 4.8zm5.7-.5h8.8v-1.6l-1.7-.3v-9.5l.1-4.8-.6-.4-7 2.2v1.3l2.1.3c.1 1.3.1 2.4.1 4.2v6.6l-1.8.4v1.6zm4.4-19c1.5.1 2.7-1 2.8-2.5v-.1c0-1.5-1.2-2.7-2.7-2.7h-.1c-1.5-.1-2.7 1.1-2.8 2.5v.1c0 1.5 1.2 2.7 2.8 2.7-.1 0 0 0 0 0zm14.2 19.5c3.1 0 5.5-1.3 6.8-4l-1.2-1c-.9 1.2-2.3 1.8-3.7 1.9-2.8 0-4.6-2.1-4.6-5.9 0-4.5 2.1-6.2 4-6.2h.6l.2 1.7c.1 2.4 1.2 3.1 2.5 3.1 1.1.1 2.1-.7 2.3-1.7-.2-2.7-2.7-4.8-6.2-4.8-4.9 0-9 3.1-9 8.6.1 5.4 3.8 8.3 8.3 8.3zM156 12.9c1.2 0 2.3 1.1 2.3 3.2 0 1.5-.4 2.1-2 2.1h-2.8c0-4 1.2-5.3 2.5-5.3zm.1 15.4c3.2 0 5.6-1.3 7-3.9l-1.2-1.1c-1 1.1-2.5 1.8-4 1.8-2.3 0-4.2-1.6-4.4-5.1h9.6c.1-.6.2-1.2.2-1.8 0-4-2.5-7-6.9-7-4.6-.1-8.4 3.5-8.5 8.1v.5c-.1 5.3 3.3 8.5 8.2 8.5z" fill="#fff"/>
  <path d="M21.2 0c-2.1.1-3.9 1.6-4.2 3.7H8.5c-.1 0-.4-.3-.6-.3-.3 0-.5.2-.6.5L.6 17.2c-.3.1-.6.4-.6.7 0 4 3.5 7.1 7.9 7.1s7.9-3.2 7.9-7.1c0-.4-.3-.7-.7-.8l-5.9-12H17c.2 1.7 1.5 3.1 3.2 3.5v17.2h1.4V8.6c1.9-.2 3.4-1.6 3.7-3.4h7.8l-5.9 12c-.4 0-.7.4-.7.8 0 3.9 3.6 7.1 7.9 7.1s7.9-3.2 7.9-7.1c0-.3-.3-.6-.6-.7L35.1 3.9c-.1-.3-.3-.5-.6-.5-.2 0-.5.3-.6.3h-8.4C25.1 1.6 23.3.1 21.2 0zM7.9 5.8l5.7 11.4H2.3L7.9 5.8zm26.6 0 5.6 11.4H28.8l5.7-11.4zM21.2 27.3c-2.7 0-5 1.4-5.2 3.9h10.5c-.3-2.5-2.6-3.9-5.3-3.9zM13 32.6V35h16.4v-2.4H13z" fill="#c19e7c"/>
</svg>
