<svg xmlns="http://www.w3.org/2000/svg" width="160.406" height="56.663">
  <path data-name="Union 3" d="m100.791 56.56-.03-.01a1.061 1.061 0 0 1-.6-.476 8.744 8.744 0 0 1-.419-1.279 46.335 46.335 0 0 1-.924-4.581c-.317-1.959-.638-4.131-.955-6.454s-.614-4.726-.882-7.146-.479-4.678-.625-6.712c-.049-1.017-.1-2.366-.147-4.011s-.073-3.352-.073-5.071.025-3.314.073-4.743.1-2.451.147-3.036l.005-.031a12.326 12.326 0 0 0 .216-1.252 5.587 5.587 0 0 1 .146-.845v-.178l-.774.186c-.706.169-1.594.389-2.64.655s-2.17.559-3.338.873-2.252.62-3.224.909c-.827.241-1.429.425-1.792.544a5.047 5.047 0 0 0-.5.185c-.141.3-.7.348-.99.374h-.021a6.673 6.673 0 0 0-2.048.495l-.025.008c-.384.1-.76.2-1.121.323l-.792.261h-.02a1.13 1.13 0 0 1-1.007-.285 1.03 1.03 0 0 1-.409-.886.841.841 0 0 1 .547-.583 8.706 8.706 0 0 1 2.26-.747c.236-.046.64-.144 1.2-.287s1.159-.315 1.789-.507c4.1-1.259 8.007-2.314 11.618-3.137a97.928 97.928 0 0 1 10.525-1.826h.005c.54-.049 1.162-.086 1.848-.11s1.355-.036 1.991-.036 1.234.012 1.773.036a11.669 11.669 0 0 1 1.276.113h.019a9.929 9.929 0 0 1 1.655.561 1.815 1.815 0 0 1 .993.794c.159.239.341.581.177.85a.415.415 0 0 1-.37.2 1.136 1.136 0 0 1-.487-.144l-.019-.01a8.722 8.722 0 0 0-4.357-.808 54.456 54.456 0 0 0-9.571 1.131l-1.035.181.049.436c.078.536.053.638.014.716-.1.2-.367.2-.468.2l-.009.017a3.923 3.923 0 0 0-.123.864c-.195 1.737-.306 3.862-.33 6.32s.037 5.251.183 8.292.393 6.372.734 9.9.76 7.251 1.247 11.067c.1.872.208 1.752.331 2.62s.233 1.68.331 2.405.195 1.328.291 1.807a9.429 9.429 0 0 0 .213.919l.007.025a.873.873 0 0 1-.118.764.86.86 0 0 1-.7.27 3.03 3.03 0 0 1-.72-.11Zm-90.189.039a1.715 1.715 0 0 1-.652-.375l-.418-.332-.471.156a4.616 4.616 0 0 1-2.012.151 3.387 3.387 0 0 1-1.616-.705 2.992 2.992 0 0 1-.955-1.382 3.851 3.851 0 0 1-.12-1.821v-.007a10.03 10.03 0 0 1 .525-1.791 18.733 18.733 0 0 1 .964-2.062l.627-1.312-.355-2.04c-.2-1.212-.393-2.513-.588-3.868s-.368-2.707-.515-4.014-.27-2.56-.368-3.723-.147-2.154-.147-2.933v-.651l-.67-.3a6.813 6.813 0 0 1-3.733-5.42 14.046 14.046 0 0 1-.076-2.671 19.193 19.193 0 0 1 .3-2.878 28.186 28.186 0 0 1 1.814-5.549A36.78 36.78 0 0 1 4.907 7.94a25.732 25.732 0 0 1 3.409-4.228 15.481 15.481 0 0 1 3.729-2.81 8.123 8.123 0 0 1 1.7-.711 6.2 6.2 0 0 1 1.565-.19 7.587 7.587 0 0 1 .952.04 3.463 3.463 0 0 1 .917.35 5.627 5.627 0 0 1 3.062 4.1v.007a13.555 13.555 0 0 1 .151 2.3 19.616 19.616 0 0 1-.149 2.581v.006a42.574 42.574 0 0 1-2.362 8.06 86.789 86.789 0 0 1-4.857 10.37l-.263.523c.131-.1.274-.2.429-.308a14.548 14.548 0 0 1 6.048-2.957h.011a7.965 7.965 0 0 1 .891-.054 5.107 5.107 0 0 1 1.365.171 4.215 4.215 0 0 1 1.828 1.116 5.283 5.283 0 0 1 1.61 3.88v.132l1.429-.708c1.077-.486 2.044-.892 2.877-1.208a5.3 5.3 0 0 1 1.586-.425.791.791 0 0 1 .16.014l.028.007a.807.807 0 0 1 .2.1c-.022-.112-.043-.229-.064-.346a39.166 39.166 0 0 1-.518-4.691c-.1-1.748-.11-3.63-.036-5.595s.209-3.917.4-5.808a14.824 14.824 0 0 1 .3-2.04c.124-.46.244-.682.416-.768l.018-.008a.877.877 0 0 1 .321-.058 1.933 1.933 0 0 1 .908.29 1.941 1.941 0 0 1 .9.824 1.34 1.34 0 0 1 .136.819.96.96 0 0 1-.243.694 7.852 7.852 0 0 0-.2 1.671c-.073 1.112-.148 2.458-.22 4s-.109 3.146-.109 4.761.025 2.993.073 4.1c.1 1.108.2 2.1.292 2.939a9.951 9.951 0 0 0 .357 1.884v.018l.039.154.3-.335a9.519 9.519 0 0 0 1.642-2.594 26.572 26.572 0 0 0 1.179-2.92 7.78 7.78 0 0 1 .283-2.275c.134-.367.64-.367.806-.367h.029l.028.007a3.233 3.233 0 0 1 .627.208c.01-.082.022-.18.037-.3v-.009c.159-.948.4-1.466.77-1.623a.553.553 0 0 1 .343-.1 1.422 1.422 0 0 1 .442.085 1.78 1.78 0 0 1 .835.576 2.516 2.516 0 0 1 .531 1.2 12.394 12.394 0 0 1 .263 1.856l.057.9.081-.017a6.374 6.374 0 0 0 .9-.482 9.149 9.149 0 0 0 1-.71c.084-.067.158-.123.222-.172.133-.438.282-.864.444-1.266v-.007c.532-1.217 1.028-1.839 1.559-1.955a2.088 2.088 0 0 1 1.611.365 2.1 2.1 0 0 1 .941 1.271l.005.025v.025a1.4 1.4 0 0 0 .122.624l.025.05v.055a.439.439 0 0 1-.47.467.864.864 0 0 1-.157-.015 1.119 1.119 0 0 1-.448-.134 1.62 1.62 0 0 1-.428-.3l-.018-.019-.056-.07-.278.6a17.126 17.126 0 0 0-.9 3.085 13.134 13.134 0 0 0-.252 3.15c.064 1.979.455 2.036.5 2.036.364 0 .8-.3 1.286-.9a15.432 15.432 0 0 0 1.519-2.261 28.085 28.085 0 0 0 1.274-2.565c.248-.574.436-1.037.559-1.374-.026-.349-.048-.76-.064-1.221-.025-.7-.037-1.467-.037-2.267s.012-1.6.037-2.375.062-1.491.111-2.124c.049-.677.111-1.426.184-2.225s.147-1.559.22-2.261.135-1.288.184-1.749c.076-.717.14-.831.214-.906a.518.518 0 0 1 .378-.141 1.268 1.268 0 0 1 .42.087 1.769 1.769 0 0 1 .636.346 1.31 1.31 0 0 1 .356.618 6.355 6.355 0 0 1 .117 1.1c.024.514.024 1.207 0 2.058s-.062 2.011-.11 3.462v.008c-.048.722-.085 1.54-.109 2.431s-.037 1.638-.037 2.216v1.154c.226-.355.466-.7.712-1.037a2.471 2.471 0 0 1 .782-.763 1.427 1.427 0 0 1 .878-.094h.018l.018.006a1.178 1.178 0 0 1 .717.541 1.922 1.922 0 0 1 .248.735.862.862 0 0 1-.139.787l-.069.068h-.1a1.379 1.379 0 0 1-.627-.247.575.575 0 0 0-.257-.069c-.108.176-.3.51-.562 1a6.385 6.385 0 0 0-.6 1.4v.017l-.007.016a7.413 7.413 0 0 0-.57 2.4c-.044.748.049.948.078.99.43-.019 1.635-.7 4.922-4.913a17.443 17.443 0 0 1 .261-1.963v-.016c.406-1.548.661-1.85.962-1.85a1.638 1.638 0 0 1 .864.33 1.853 1.853 0 0 1 .667.672v.01c.234.521.25.906.052 1.175a2.759 2.759 0 0 0-.257.825 12.955 12.955 0 0 0-.216 1.466c-.048.525-.072 1.058-.072 1.582a9.447 9.447 0 0 0 .071 1.279v.033a2.921 2.921 0 0 0 .138.737c.1.344.187.692.261 1.036a4.48 4.48 0 0 0 .208.712c.021-.036.043-.069.063-.1a2.117 2.117 0 0 0 .132-.23v-.007a16.822 16.822 0 0 1 1.116-1.737c.441-.609.89-1.189 1.331-1.723s.863-1.028 1.255-1.466a8.376 8.376 0 0 1 .624-.632c.012-.25.03-.494.051-.728.049-.506.086-.956.11-1.34.035-.564.09-.719.178-.806a.54.54 0 0 1 .4-.141 1.638 1.638 0 0 1 .463.082 2.075 2.075 0 0 1 .86.487l.52.431-.075 3.755c-.047 2.245-.042 3.156-.027 3.514.069-.088.174-.226.33-.443.24-.382.593-1.024 1.05-1.908s.889-1.751 1.276-2.566c.052-.155.161-.43.331-.84s.36-.826.559-1.217a8.755 8.755 0 0 1 .64-1.085c.277-.4.507-.574.744-.574a.982.982 0 0 1 1 .787 16.7 16.7 0 0 1 .34 2.855c.048.679.085 1.356.11 2.01s.061 1.245.109 1.773c.034.4.068.8.1 1.18.06-.069.132-.152.218-.253.387-.457.816-.993 1.277-1.594l1.395-1.822a9.83 9.83 0 0 0 .895-1.311l.015-.025c.289-.431.4-.542.563-.542a.772.772 0 0 1 .517.271l.393.26-.638.994c-.344.536-.853 1.263-1.514 2.161s-1.32 1.726-1.957 2.456l-1.043 1.241.072 3.7v2.664c0 .756-.025 1.413-.074 1.952s-.1 1.036-.148 1.5a11.922 11.922 0 0 1-.225 1.375 5.061 5.061 0 0 1-1.164 2.592 1.67 1.67 0 0 1-1.2.524 2.11 2.11 0 0 1-.822-.183 2.76 2.76 0 0 1-1.434-1.337 5.943 5.943 0 0 1-.654-3.253 13.771 13.771 0 0 1 .709-4.15 18.021 18.021 0 0 1 .967-2.178 15.185 15.185 0 0 1 1.194-1.96l.006-.008.536-.665v-4.435c0-1.557-.008-2.53-.018-3.135-.1.22-.215.462-.343.723-.341.7-.7 1.426-1.066 2.152l-1.028 2.041c-.324.642-.555 1.077-.707 1.326l-.009.013a1.7 1.7 0 0 1-1.364.87 1.4 1.4 0 0 1-.355-.048 2.109 2.109 0 0 1-1.521-1.419 12.235 12.235 0 0 1-.565-3.31v-.564c-.35.429-.727.894-1.123 1.387a17.962 17.962 0 0 0-1.341 1.906c-.41.67-.764 1.277-1.055 1.8l-.252.564.412 1.225a29 29 0 0 1 .962 3.376 13.574 13.574 0 0 1 .372 2.746 4.878 4.878 0 0 1-.5 2.217 3.347 3.347 0 0 1-1.383 1.486l-.019.01-.02.006a4.423 4.423 0 0 1-.738.191 1.458 1.458 0 0 1-.746-.124 2.629 2.629 0 0 1-.85-.6 4.343 4.343 0 0 1-.659-.81l-.009-.016a5.733 5.733 0 0 1-.317-3.153 19.849 19.849 0 0 1 1.26-4.754l.484-1.37-.552-1.3a15.708 15.708 0 0 1-1.339-4.434c-.006-.054-.012-.107-.018-.162-.27.353-.542.7-.812 1.043a14.331 14.331 0 0 1-1.046 1.223 7.965 7.965 0 0 1-1.709 1.389 1.828 1.828 0 0 1-1.469.125c-.144-.048-.248-.079-.325-.1 0 .118 0 .312.01.633a12.068 12.068 0 0 0 .18 1.679v.013a7.9 7.9 0 0 1 .075.795.378.378 0 0 1-.382.415h-.323a.984.984 0 0 1-.646-.089l-.018-.007-.016-.009a1.1 1.1 0 0 1-.543-.635 10.561 10.561 0 0 1-.451-2.268c-.083-.646-.167-1.461-.251-2.43-.2.446-.392.88-.587 1.3a19.039 19.039 0 0 1-1 1.881 7.179 7.179 0 0 1-.983 1.313 2.643 2.643 0 0 1-1.362.832 2.608 2.608 0 0 1-1.607-.117 3 3 0 0 1-.951-.55 2.19 2.19 0 0 1-.65-.807 5.183 5.183 0 0 1-.534-1.781 11.623 11.623 0 0 1-.075-2.3 14.9 14.9 0 0 1 .226-1.813q-.2.126-.381.24l-.019.01a3.006 3.006 0 0 1-1.207.389h-.146l-.06 1.018c-.049.733-.124 1.461-.222 2.168a10.118 10.118 0 0 1-.374 1.743 4.366 4.366 0 0 1-.464 1.219c-.29.5-.435.624-.54.676l-.02.009-.021.006a2.221 2.221 0 0 1-1.313-.076h-.016l-.015-.008a3.309 3.309 0 0 1-.712-.509 2.413 2.413 0 0 1-.567-.688v-.007a7.841 7.841 0 0 1-.568-1.953c-.049-.293-.089-.635-.119-1.023-.763 1.8-1.472 2.84-2.154 3.163a1.952 1.952 0 0 1-.873.205 2.441 2.441 0 0 1-.934-.2l-.015-.007a2.748 2.748 0 0 1-1.129-1.19v-.007a8.625 8.625 0 0 1-.6-1.718.8.8 0 0 1-.335.162c-.163.046-.364.117-.6.211h-.008c-.531.192-1.193.46-1.968.8s-1.584.726-2.408 1.158a10.123 10.123 0 0 0-1.1.633.215.215 0 0 0-.1.181c0 .106-.012.281-.037.534a3.96 3.96 0 0 1-.189.834 22.826 22.826 0 0 1-1.072 3.993 43.851 43.851 0 0 1-1.846 4.358 48.68 48.68 0 0 1-2.36 4.283 40.66 40.66 0 0 1-2.622 3.774l-.007.009c-.589.681-1.309 1.445-2.142 2.271a21.385 21.385 0 0 1-2.152 1.914c-.244.193-.468.366-.663.512-.062.046-.116.085-.164.117a1.955 1.955 0 0 1 .293.439l.662.75-.514.382-.019.009a2.051 2.051 0 0 1-.912.171 3.252 3.252 0 0 1-.573-.065ZM6.939 50.19c-.243.6-.489 1.2-.732 1.781a4.937 4.937 0 0 0-.279 1.558 3.133 3.133 0 0 0 .122 1.022 1.008 1.008 0 0 0 .866.3 4.162 4.162 0 0 0 .638-.055l.577-.143a2.087 2.087 0 0 0 .392-.128l.018-.008.141-.055-.2-.448c-.147-.389-.358-.993-.627-1.793s-.48-1.48-.628-2.016v-.016c-.033-.164-.067-.305-.1-.422-.052.101-.113.238-.188.423Zm15.569-16.637c-.311.166-.676.384-1.085.646s-.839.556-1.274.868-.833.595-1.174.836a47.055 47.055 0 0 0-3.76 3.188 39.275 39.275 0 0 0-3.32 3.476c-.292.338-.6.715-.913 1.122s-.611.8-.878 1.162-.484.674-.651.935a3.235 3.235 0 0 0-.22.372 7.026 7.026 0 0 0 .14.727c.1.435.209.938.331 1.495l.367 1.677c.12.549.23 1 .326 1.33.244.775.4 1.3.479 1.572.016.06.031.108.043.146l.056-.045a5.012 5.012 0 0 1 .6-.413 20.667 20.667 0 0 0 2.891-2.872 36.029 36.029 0 0 0 2.772-3.8 47.03 47.03 0 0 0 2.447-4.35 37.263 37.263 0 0 0 1.933-4.67v-.009c.143-.38.277-.791.4-1.219s.231-.848.329-1.232.168-.708.217-.969Zm50.938.748a13.061 13.061 0 0 0-.9 1.86c-.217.573-.425 1.2-.617 1.871a11.269 11.269 0 0 0-.324 3.386 4.448 4.448 0 0 0 .8 2.459l.015.022a1.82 1.82 0 0 0 .151.219 2.024 2.024 0 0 0 .215-.192 2.439 2.439 0 0 0 .423-.826 8.435 8.435 0 0 0 .393-1.524v-.018a8.256 8.256 0 0 0 .1-1.335c.024-.723.037-1.492.037-2.287v-2.331a11.008 11.008 0 0 0-.07-1.528v-.02l-.011-.148ZM7.8 35.949c.023.263.06.592.108.975.049.44.111 1.017.185 1.718s.158 1.406.256 2.1.2 1.346.292 1.924c.068.4.124.721.168.96.053-.076.122-.179.208-.317l.018-.024c.436-.528.854-1.063 1.24-1.592l.011-.014c.586-.678 1.267-1.44 2.024-2.264a25.249 25.249 0 0 1 2.187-2.133c.635-.534 1.23-1.025 1.766-1.46s1.125-.883 1.738-1.321 1.321-.907 2.105-1.393 1.7-1.033 2.75-1.652a1.445 1.445 0 0 0 .081-.277 3.511 3.511 0 0 0 .069-.751c0-.309-.013-.634-.037-.967s-.06-.642-.107-.925v-.005c-.164-1.142-.52-1.478-.789-1.558l-.02-.007a1.856 1.856 0 0 0-.681-.114 4.725 4.725 0 0 0-1.224.194 13.058 13.058 0 0 0-2.735 1.143 35.379 35.379 0 0 0-3.314 2.276 48.507 48.507 0 0 0-3.762 3.3c-.486.483-.873.853-1.143 1.1s-.483.43-.632.553a.718.718 0 0 1-.6.2c-.068-.013-.139-.03-.213-.05a3.515 3.515 0 0 1 .051.381Zm53.7-1.4c-.242.768-.439 1.426-.584 1.955a16.221 16.221 0 0 0-.325 1.935 6.537 6.537 0 0 0-.037 1.472v.007a4.358 4.358 0 0 0 .242 1.071 1.47 1.47 0 0 0 .208.411 1.052 1.052 0 0 0 .547-.069 2.126 2.126 0 0 0 1.22-1.554 6.449 6.449 0 0 0-.038-2.913c-.1-.384-.207-.8-.328-1.228s-.233-.842-.33-1.2a6.257 6.257 0 0 0-.259-.786c-.067.153-.17.427-.316.896ZM8.829 9.149c-.025.245-.074.64-.148 1.174s-.158 1.333-.256 2.393v.007c-.2 1.644-.369 3.114-.514 4.371s-.257 2.438-.33 3.522-.122 2.159-.147 3.2-.036 2.2-.036 3.456c0 2.17.025 3.66.073 4.429.012.185.024.33.036.444.049-.085.11-.192.184-.324.243-.435.515-.924.807-1.455 2.24-3.961 4.126-7.608 5.609-10.841a69.338 69.338 0 0 0 3.256-8.2c1.009-3.673 1.233-6.445.664-8.238a3.666 3.666 0 0 0-.373-.779.983.983 0 0 0-.446-.319 2.543 2.543 0 0 0-1.413-.133 7.637 7.637 0 0 0-1.919.708 11.863 11.863 0 0 0-2.483 1.608 23.508 23.508 0 0 0-2.5 2.411l-.369.471.281.235a2.281 2.281 0 0 1 .727 1.147.533.533 0 0 1-.093.45.451.451 0 0 1-.361.149.956.956 0 0 1-.224-.03c-.014.029-.021.076-.026.14Zm30.8 16.406c0 .6.012 1.285.036 2.032s.061 1.454.109 2.1c.013.173.026.318.037.439.025-.1.054-.222.085-.362v-.017a12.122 12.122 0 0 0 .36-1.644c.1-.627.2-1.191.294-1.677l.057-.509-.406-.288a5.757 5.757 0 0 1-.573-.469c.003.103.001.232.001.394ZM5.349 11.748c-.217.409-.438.846-.656 1.3s-.4.858-.547 1.194a28.675 28.675 0 0 0-1.6 4.413 20.112 20.112 0 0 0-.69 4 11.047 11.047 0 0 0 .214 3.175 4.244 4.244 0 0 0 1.076 2.074 2.055 2.055 0 0 0 1.229.733h.064l.068-2.466c0-2.18.074-4.28.22-6.243s.394-4.259.736-6.825c.093-.787.177-1.463.247-2.009q-.169.293-.36.65Zm35.011 10.89a6.326 6.326 0 0 0 0 1.3c.08.235.168.482.263.734-.008-.246-.031-.513-.067-.8v-.013c-.041-.568-.091-1.046-.149-1.424-.017.059-.031.127-.046.199Zm76.855 15.559a2.489 2.489 0 0 1-.858-.456 3.668 3.668 0 0 1-.515-.742l-.01-.017a10.487 10.487 0 0 1-.79-2.8 27.687 27.687 0 0 1-.259-4.152c0-1.165.024-2.2.073-3.073s.123-2.093.22-3.638c0-.388.012-.783.036-1.173.023-.359.034-.658.036-.889l-.017.025a14.108 14.108 0 0 0-1.151 2.038c-.484.985-.876 1.872-1.166 2.639a23.021 23.021 0 0 0-.835 2.7 9.491 9.491 0 0 0-.252 2.1c0 1.038.136 1.2.152 1.22l.014.015a.462.462 0 0 1 .122.515c-.128.271-.543.305-.89.305a1.356 1.356 0 0 1-1.184-.574 5.538 5.538 0 0 1-.66-1.791 27.282 27.282 0 0 1-.483-3.532c-.122-1.452-.233-2.924-.33-4.375-.049-.88-.049-1.954 0-3.195s.124-2.49.221-3.725.209-2.366.331-3.361a12.687 12.687 0 0 1 .339-1.969c.042-.154.185-.4.672-.4a2.134 2.134 0 0 1 .229.014 2.013 2.013 0 0 1 1.146.405l.542.359v1.145c0 .61-.023 1.089-.295 1.168a1.331 1.331 0 0 0-.075.322c-.048.334-.121 1.113-.219 2.317-.048.527-.073 1.366-.073 2.495v6.666c0 .432.006.743.013.966.034-.092.074-.2.118-.318a35.761 35.761 0 0 1 1.477-3.663 8.128 8.128 0 0 1 1.368-2.178 3.223 3.223 0 0 1 .439-.393.545.545 0 0 1 .3-.076 1.808 1.808 0 0 1 .326.037 1.329 1.329 0 0 1 1.3.952 4.831 4.831 0 0 1 .088 1.844c-.048.919-.123 2.17-.22 3.718a47.524 47.524 0 0 0-.074 6.889 14.473 14.473 0 0 0 .787 4.218c.214.421.336.448.337.448s.171-.023.668-.577l.009-.01a9.864 9.864 0 0 0 1.9-3.1 64.011 64.011 0 0 0 2.157-6.277v-.012c.092-.257.179-.516.257-.768a11.27 11.27 0 0 1 .848-3.9 3.753 3.753 0 0 1 1.352-2.012l.022-.01a1.493 1.493 0 0 1 1.389.2 1.868 1.868 0 0 1 .915 1.2v.009a5.933 5.933 0 0 1-.111 2.164 5.546 5.546 0 0 1-.8 2.083c-.317.546-.684.822-1.094.822a1.069 1.069 0 0 1-.548-.164l-.011-.006v1.4c.048.716.1 1.246.145 1.577a5.188 5.188 0 0 0 .21.906v.012a2.234 2.234 0 0 0 .417.953.419.419 0 0 0 .409.119c.261-.059.7-.312 1.325-1.182a17.109 17.109 0 0 0 1.484-2.552c.46-.961.865-1.9 1.2-2.787.055-.146.108-.283.157-.414a12.426 12.426 0 0 1 .314-2.554c.2-.717.563-1.081 1.071-1.081h.04a3.4 3.4 0 0 1 .751.2 3.382 3.382 0 0 1 .751.505c.383.285.545.48.558.671a.331.331 0 0 1-.1.26l-.039.039-.053.018a1.132 1.132 0 0 1-.615.012h-.057a.527.527 0 0 1-.037.087.359.359 0 0 0-.012.115v.1l-.037.038a4.593 4.593 0 0 0-.036.776v1.822c0 .649.012 1.284.036 1.885.01.239.017.45.023.634.044-.188.089-.408.134-.664.1-.554.2-1.106.294-1.641.1-.582.186-1.04.259-1.36s.133-.6.181-.863.1-.556.146-.868.124-.77.221-1.351c.487-2.951.92-5.356 1.286-7.148.5-2.468.794-3.029.968-3.236l.015-.016a.676.676 0 0 1 .481-.209 1.194 1.194 0 0 1 .805.427.694.694 0 0 1 .172.327 4.212 4.212 0 0 1 .079.658c.025.317.05.811.075 1.466s.037 1.578.037 2.742c0 3.036.073 5.209.218 6.457.1.818.208 1.6.329 2.321a10.335 10.335 0 0 0 .231 1.107 30.8 30.8 0 0 0 2.536-3.458c.537-.825.986-1.467 1.331-1.907a8.1 8.1 0 0 1 .909-1.014 1.238 1.238 0 0 1 .782-.388 1.961 1.961 0 0 1 .711.162l.018.008a1.233 1.233 0 0 1 .675.889 8.845 8.845 0 0 1-.032 2.18c-.048.724-.1 1.543-.146 2.435s-.073 1.769-.073 2.61v2.331a11.89 11.89 0 0 0 .071 1.533v.009a17.343 17.343 0 0 0 .687 3.522c.39 1.187.651 1.286.69 1.294.031-.01.182-.081.557-.533a9.516 9.516 0 0 0 1-1.528v-.009a21.28 21.28 0 0 0 1.634-3.423 48.841 48.841 0 0 0 1.475-4.948 11.165 11.165 0 0 1 .84-3.764 3.752 3.752 0 0 1 1.352-2.012l.021-.01a1.5 1.5 0 0 1 1.39.2 1.869 1.869 0 0 1 .915 1.2v.009a5.943 5.943 0 0 1-.111 2.164 5.563 5.563 0 0 1-.8 2.083c-.317.546-.685.822-1.094.822a1.069 1.069 0 0 1-.548-.164l-.011-.006v1.4c.048.716.1 1.246.145 1.577a5.188 5.188 0 0 0 .21.906v.012a2.238 2.238 0 0 0 .417.953.418.418 0 0 0 .409.119c.261-.059.7-.312 1.325-1.182a17.025 17.025 0 0 0 1.484-2.552c.46-.961.865-1.9 1.2-2.787s.559-1.507.655-1.839l.006-.021.01-.019c.048-.1.139-.275.321-.275.064 0 .121.015.42.163l.656.217-.526 1.393c-.146.385-.368.962-.662 1.714s-.615 1.538-.957 2.339a18.605 18.605 0 0 1-1.116 2.213 4.09 4.09 0 0 1-1.252 1.427 3.113 3.113 0 0 1-.956.358 1.761 1.761 0 0 1-1.016-.046 3.319 3.319 0 0 1-2.041-1.949 6.947 6.947 0 0 1-.375-1.038 33.533 33.533 0 0 1-2.174 5.61c-.81 1.53-1.587 2.274-2.374 2.274h-.056l-.05-.024a.587.587 0 0 0-.262-.049.744.744 0 0 1-.486-.171 1.639 1.639 0 0 1-.794-.457 7.629 7.629 0 0 1-.608-.866l-.007-.012a11.768 11.768 0 0 1-1.166-4.869 55.375 55.375 0 0 1 .257-7.94v-.013c.048-.333.085-.67.108-1a2.463 2.463 0 0 0-.031-.728l-.007-.028v-.029l-.3.424c-.095.141-.179.271-.249.388s-.129.221-.176.313l-.014.025a3.344 3.344 0 0 0-.189.307 3.565 3.565 0 0 1-.4.707c-.246.392-.546.825-.891 1.29s-.673.912-.99 1.346-.523.725-.619.868l-.017.022a2.913 2.913 0 0 1-.807.713 1.622 1.622 0 0 1-.946.095h-.013a1.856 1.856 0 0 1-1.3-1.031 9.132 9.132 0 0 1-.721-2.584v-.006c-.049-.341-.086-.639-.111-.884l-.074-.729c-.025-.244-.049-.527-.073-.843s-.061-.741-.11-1.272v-.021c0-.479-.012-.9-.036-1.26-.012-.185-.021-.334-.028-.451q-.1.521-.2 1.131c-.146.845-.294 1.762-.44 2.728s-.269 1.869-.366 2.688v.007c-.341 2.275-.614 3.945-.81 4.963-.273 1.422-.548 1.767-.76 1.9a1.247 1.247 0 0 1-.752.241 2.234 2.234 0 0 1-1.032-.3c-.862-.466-1.368-1.795-1.539-4.05-.087.206-.174.413-.263.621a18.679 18.679 0 0 1-1.116 2.213 4.082 4.082 0 0 1-1.252 1.427 3.115 3.115 0 0 1-.957.358 1.756 1.756 0 0 1-1.015-.046 3.319 3.319 0 0 1-2.042-1.949 7.182 7.182 0 0 1-.41-1.17c-.446 1.327-.926 2.612-1.432 3.827a15.447 15.447 0 0 1-1.72 3.3 2.7 2.7 0 0 1-1.988 1.327 1.441 1.441 0 0 1-.446-.085Zm37.042-15.791a11.333 11.333 0 0 0-.467 1.285 7.723 7.723 0 0 0-.285 1.627c-.017.216-.024.374-.024.489l.028-.044.012-.019.014-.017a4.127 4.127 0 0 0 .823-2.207v-.025a2.574 2.574 0 0 0 .068-1 1.909 1.909 0 0 0-.064-.309c-.022.044-.062.116-.103.216Zm-28.635 0a11.767 11.767 0 0 0-.468 1.285 7.822 7.822 0 0 0-.284 1.627c-.017.216-.023.374-.024.489l.028-.044.011-.019.015-.017a4.127 4.127 0 0 0 .823-2.207v-.025a2.57 2.57 0 0 0 .068-1 1.856 1.856 0 0 0-.064-.309c-.021.044-.059.116-.103.216Z" fill="#fff"/>
</svg>
