<svg xmlns="http://www.w3.org/2000/svg" viewBox="0 0 135.6 26.7" xml:space="preserve">
  <path d="M20.3 11.7c-.8.8-1.2 1.8-1 2.9.2 2.4-1.6 4.5-4 4.7h-.7c-2-.2-3.8 1.3-4 3.3s1.3 3.8 3.3 4 3.8-1.3 4-3.3v-.7c-.2-2.4 1.6-4.5 4-4.7h.7c2 .2 3.8-1.3 4-3.3s-1.3-3.8-3.3-4c-1.1-.1-2.2.3-3 1.1zM13 17c2 .2 3.8-1.3 4-3.3V13c-.2-2.4 1.6-4.5 4-4.7h.7c2 .2 3.8-1.3 4-3.3s-1.3-3.8-3.3-4-3.8 1.3-4 3.3V5c.2 2.4-1.6 4.5-4 4.7h-.7c-2-.2-3.8 1.2-4 3.2v.7c.2 2.4-1.6 4.5-4 4.7H5c-2-.2-3.8 1.3-4 3.3-.2 2 1.3 3.8 3.3 4s3.8-1.3 4-3.3v-.7c-.2-2.4 1.6-4.5 4-4.7.2 0 .4 0 .7.1zm-6.7-2c.8-.8 1.2-1.8 1-2.9-.2-2.4 1.6-4.5 4-4.7h.7c2 .1 3.8-1.4 4-3.4S14.7.2 12.7 0s-3.8 1.3-4 3.3V4c.2 2.4-1.6 4.5-4 4.7H4C2 8.5.2 10 0 12s1.3 3.8 3.3 4c1.1.1 2.2-.3 3-1zM37.2 5h3v14.5h-3V5zm4.7 9.5c0-2.9 2.3-5.3 5.2-5.3 2.9 0 5.3 2.3 5.3 5.2 0 2.9-2.3 5.3-5.2 5.3-2.9 0-5.3-2.2-5.3-5.2 0 .1 0 0 0 0zm7.5 0c0-1.3-1.1-2.2-2.3-2.2-1.3 0-2.2 1.1-2.2 2.3 0 1.2 1 2.2 2.3 2.2 1.2 0 2.2-.9 2.3-2.2-.1 0-.1 0-.1-.1zm14.8-5v9.4c0 3.3-2.6 4.7-5.2 4.7-1.9.1-3.7-.8-4.7-2.4l2.5-1.5c.4.8 1.3 1.3 2.3 1.2 1.1.1 2.1-.6 2.2-1.7V18c-.7.9-1.8 1.3-2.9 1.3-2.8-.1-5-2.4-4.9-5.2.1-2.7 2.2-4.8 4.9-4.9 1.1-.1 2.2.4 2.9 1.3v-1h2.9zm-2.9 4.8c.1-1.3-1-2.4-2.3-2.5-1.3-.1-2.4 1-2.5 2.3-.1 1.3 1 2.4 2.3 2.5h.1c1.2.1 2.3-.8 2.4-2.1v-.2zm4.6.2c0-2.9 2.3-5.3 5.2-5.3 2.9 0 5.3 2.3 5.3 5.2 0 2.9-2.3 5.3-5.2 5.3-2.9 0-5.3-2.2-5.3-5.2 0 .1 0 0 0 0zm7.5 0c0-1.3-1.1-2.2-2.3-2.2-1.3 0-2.2 1.1-2.2 2.3 0 1.2 1 2.2 2.3 2.2 1.2 0 2.2-.9 2.3-2.2-.1 0-.1 0-.1-.1zm4.4-7.6c0-1 .8-1.8 1.8-1.8s1.8.8 1.8 1.8-.8 1.8-1.8 1.8-1.8-.8-1.8-1.8zm.3 2.6h3v9.9h-3V9.5zm15.8 5c.1 2.7-2 5.1-4.7 5.2-1.1.1-2.2-.4-2.9-1.2v4.9h-3V9.5h3v.9c.7-.8 1.7-1.2 2.9-1.1 2.7.1 4.8 2.4 4.7 5.2zm-3 0c0-1.3-1.1-2.3-2.4-2.3s-2.3 1.1-2.3 2.4c0 1.3 1.1 2.3 2.4 2.3 1.2.1 2.3-.9 2.4-2.2-.1 0-.1-.1-.1-.2zm12.2 2c0 2.3-2 3.2-4.1 3.2-1.8.2-3.5-.8-4.3-2.4l2.6-1.5c.2.7.9 1.2 1.7 1.2.7 0 1.1-.2 1.1-.6 0-1.1-4.9-.5-4.9-3.9 0-2.2 1.8-3.2 3.9-3.2 1.6 0 3.1.8 3.9 2.1l-2.5 1.4c-.2-.5-.7-.9-1.3-.9-.5 0-.8.2-.8.6-.2 1.1 4.7.3 4.7 4zm10.8-7v9.9h-3v-.9c-.7.8-1.7 1.3-2.8 1.2-2 0-3.7-1.4-3.7-4.1V9.5h3v5.6c-.1.9.6 1.7 1.5 1.8h.3c1.1 0 1.8-.6 1.8-2V9.5h2.9zm17 3.9v6.1h-3v-5.8c0-1-.5-1.6-1.4-1.6-1 0-1.5.7-1.5 1.9v5.6h-3v-5.8c0-1-.5-1.6-1.4-1.6-1 0-1.5.7-1.5 1.9v5.6h-3V9.5h3v.9c.6-.8 1.6-1.3 2.7-1.2 1-.1 2 .4 2.6 1.3.7-.9 1.8-1.4 2.9-1.3 2.1.1 3.6 1.7 3.6 4.2zm2.5-3.9c1.2 0 2.2-1 2.2-2.2 0-1.2-1-2.2-2.2-2.2s-2.2 1-2.2 2.2c0 1.2 1 2.2 2.2 2.2z" fill="#191919"/>
</svg>
