<svg xmlns="http://www.w3.org/2000/svg" viewBox="0 0 126.7 29.5" xml:space="preserve">
  <path d="M36 9h3.2v13H36V9zm4.5 8.1c0-3.2 2-5.1 5-5.1s5 1.9 5 5.1-1.9 5.2-5 5.2-5-1.9-5-5.2zm6.8 0c0-1.8-.7-2.8-1.8-2.8s-1.8 1-1.8 2.8.7 2.8 1.8 2.8 1.8-.9 1.8-2.8zm4.5 5.6h3.1c.3.7 1 1.1 1.7 1 1.2 0 1.9-.7 1.9-1.6v-1.8c-.5 1.1-1.7 1.8-3 1.8-2.3 0-3.9-1.8-3.9-4.9s1.5-5 4-5c1.3-.1 2.5.7 3 1.9h-.1v-1.8h3.2V22c0 2.4-2.1 3.8-5.1 3.8-2.9 0-4.6-1.3-4.8-3.1zm6.7-5.6c0-1.6-.7-2.6-1.9-2.6s-1.8 1-1.8 2.6.7 2.5 1.8 2.5 1.9-.8 1.9-2.5zm4.4 0c0-3.2 2-5.1 5-5.1s5 1.9 5 5.1-1.9 5.2-5 5.2-5-1.9-5-5.2zm6.9 0c0-1.8-.7-2.8-1.8-2.8s-1.8 1-1.8 2.8.7 2.8 1.8 2.8 1.8-.9 1.8-2.8zm4.4-7.2c0-.9.7-1.7 1.6-1.7.9 0 1.7.7 1.7 1.6 0 .9-.7 1.7-1.6 1.7h-.1c-.8-.1-1.5-.7-1.6-1.6.1 0 .1 0 0 0zm0 2.3h3.2v9.9h-3.2v-9.9zm15 4.9c0 3.2-1.4 5.1-3.9 5.1-1.3.1-2.5-.7-3-1.8h-.1v4.9H79v-13h3.2V14h.1c.5-1.2 1.7-2 3-1.9 2.5 0 3.9 1.8 3.9 5zm-3.3 0c0-1.6-.7-2.6-1.9-2.6s-1.8 1-1.8 2.6.7 2.6 1.8 2.6 2-.9 1.9-2.6zm8.8-5.1c2.7 0 4.4 1.3 4.4 3.3h-2.9c0-.7-.6-1.1-1.5-1.1s-1.3.3-1.3.9.4.7 1.1.8l2.1.4c2 .4 2.8 1.2 2.8 2.7 0 2-1.8 3.4-4.6 3.4S90.2 21 90 19h3.1c.1.7.7 1.2 1.6 1.2s1.4-.3 1.4-.8-.3-.6-1.1-.8l-1.9-.4c-1.9-.4-2.9-1.4-2.9-2.9.1-2.1 1.8-3.3 4.5-3.3zm15.4 10.1H107v-1.9h-.1c-.4 1.3-1.6 2.1-2.9 2-1.9.1-3.5-1.4-3.5-3.3v-6.7h3.2v5.6c0 1.2.6 1.8 1.6 1.8.7 0 1.4-.5 1.6-1.2.1-.2.1-.5 0-.7v-5.6h3.2v10zm1.5-9.9h3.1v1.9h.1c.4-1.3 1.5-2.1 2.8-2.1 1.3-.1 2.5.8 2.7 2.1h.1c.4-1.3 1.6-2.2 3-2.1 1.7-.1 3.2 1.3 3.2 3v7h-3.2v-5.9c0-1-.5-1.6-1.4-1.6-.8 0-1.4.6-1.4 1.4v6h-3.1V16c0-1-.5-1.5-1.4-1.5-.6 0-1.2.4-1.4 1-.1.2-.1.4-.1.6v5.8h-3.2l.2-9.7zm-82-2.3c0-5.5-4.4-9.9-9.9-9.9-2.8 0-5.4 1.2-7.3 3.2H0v26.3h26.4V17.2c2-1.8 3.2-4.5 3.2-7.3zm-5 0c0 2.7-2.1 4.8-4.8 4.8-2.7 0-4.8-2.1-4.8-4.8s2.1-4.8 4.8-4.8c1.3 0 2.5.5 3.4 1.4.9.9 1.4 2.1 1.4 3.4zm-3.3 14.6H5.1V8.3H10c-.1.5-.1 1-.1 1.6 0 5.5 4.4 9.9 9.9 9.9.5 0 1 0 1.5-.1v4.8z" fill="#191919"/>
</svg>
