<svg xmlns="http://www.w3.org/2000/svg" width="127.968" height="106.296" viewBox="0 0 127.968 106.296"><path fill="#a0876e" d="M0 71.892a61.794 61.794 0 0 0 5.848 26.144 31.2 31.2 0 0 0 20.984 8.256c13.072 0 23.048-8.6 23.048-23.048 0-8.944-3.1-17.2-13.416-25.456L23.736 47.472c7.568-15.48 18.92-26.488 32.68-36.464L50.22 0C21.672 15.136 0 41.624 0 71.892zm71.552 0A61.793 61.793 0 0 0 77.4 98.036a31.2 31.2 0 0 0 20.984 8.256c13.072 0 23.048-8.6 23.048-23.048 0-8.944-3.1-17.2-13.416-25.456l-12.728-10.32c7.568-15.48 18.92-26.488 32.68-36.464L121.776-.004C93.22 15.136 71.552 41.624 71.552 71.892z" data-name="Path 7279" opacity=".1"/></svg>